<svg width="16" height="23" viewBox="0 0 16 23" fill="none" xmlns="http://www.w3.org/2000/svg">
<path d="M8 5.175C8.75776 5.175 9.48449 5.4779 10.0203 6.01707C10.5561 6.55623 10.8571 7.2875 10.8571 8.05C10.8571 8.42755 10.7832 8.8014 10.6397 9.15022C10.4961 9.49903 10.2856 9.81596 10.0203 10.0829C9.755 10.3499 9.44003 10.5617 9.09338 10.7062C8.74674 10.8506 8.37521 10.925 8 10.925C7.24224 10.925 6.51551 10.6221 5.9797 10.0829C5.44388 9.54376 5.14286 8.8125 5.14286 8.05C5.14286 7.2875 5.44388 6.55623 5.9797 6.01707C6.51551 5.4779 7.24224 5.175 8 5.175ZM8 0C10.1217 0 12.1566 0.848122 13.6569 2.35779C15.1571 3.86746 16 5.91501 16 8.05C16 14.0875 8 23 8 23C8 23 0 14.0875 0 8.05C0 5.91501 0.842855 3.86746 2.34315 2.35779C3.84344 0.848122 5.87827 0 8 0V0ZM8 2.3C6.48448 2.3 5.03103 2.9058 3.95939 3.98414C2.88775 5.06247 2.28571 6.52501 2.28571 8.05C2.28571 9.2 2.28571 11.5 8 19.2165C13.7143 11.5 13.7143 9.2 13.7143 8.05C13.7143 6.52501 13.1122 5.06247 12.0406 3.98414C10.969 2.9058 9.51552 2.3 8 2.3V2.3Z" fill="#3D4785"/>
</svg>
